<svg width="25" height="25" viewBox="0 0 25 25" fill="none" xmlns="http://www.w3.org/2000/svg">
<path fill-rule="evenodd" clip-rule="evenodd" d="M4.30811 5.06006C4.30811 4.97406 4.36011 4.77306 4.72911 4.48106C5.09111 4.19606 5.66111 3.90706 6.43111 3.65106C7.96511 3.13906 10.1311 2.81006 12.5581 2.81006C14.9851 2.81006 17.1511 3.13906 18.6851 3.65006C19.4551 3.90706 20.0251 4.19606 20.3861 4.48106C20.7561 4.77306 20.8081 4.97406 20.8081 5.06006C20.8081 5.14606 20.7561 5.34706 20.3861 5.63906C20.0251 5.92406 19.4561 6.21306 18.6851 6.46906C17.1511 6.98106 14.9851 7.31006 12.5581 7.31006C10.1311 7.31006 7.96511 6.98106 6.43111 6.47006C5.66111 6.21306 5.09111 5.92406 4.72911 5.63906C4.35911 5.34706 4.30811 5.14606 4.30811 5.06006ZM20.8081 7.16306C20.2861 7.46453 19.7332 7.70926 19.1591 7.89306C17.4351 8.46706 15.1021 8.81006 12.5581 8.81006C10.0151 8.81006 7.68111 8.46706 5.95711 7.89306C5.38297 7.70925 4.83016 7.46452 4.30811 7.16306V12.0601C4.30811 12.1461 4.36011 12.3471 4.72911 12.6391C5.09111 12.9241 5.66111 13.2131 6.43111 13.4691C7.96511 13.9811 10.1311 14.3101 12.5581 14.3101C14.9851 14.3101 17.1511 13.9811 18.6851 13.4701C19.4551 13.2131 20.0251 12.9241 20.3861 12.6391C20.7561 12.3471 20.8081 12.1461 20.8081 12.0601V7.16306ZM22.3081 12.0601V5.06006C22.3081 4.31706 21.8561 3.73006 21.3151 3.30306C20.7651 2.87006 20.0171 2.51306 19.1591 2.22706C17.4351 1.65306 15.1021 1.31006 12.5581 1.31006C10.0151 1.31006 7.68111 1.65306 5.95711 2.22706C5.09911 2.51306 4.35011 2.87006 3.80111 3.30306C3.26111 3.73006 2.80811 4.31706 2.80811 5.06006V19.0601C2.80811 19.8021 3.26011 20.3901 3.80111 20.8171C4.35111 21.2501 5.09911 21.6071 5.95711 21.8931C7.68111 22.4681 10.0151 22.8101 12.5581 22.8101C15.1011 22.8101 17.4351 22.4671 19.1591 21.8931C20.0171 21.6071 20.7661 21.2501 21.3151 20.8171C21.8551 20.3901 22.3081 19.8021 22.3081 19.0601V12.0601ZM20.8081 14.1631C20.2861 14.4646 19.7333 14.7093 19.1591 14.8931C17.4351 15.4681 15.1021 15.8101 12.5581 15.8101C10.0151 15.8101 7.68111 15.4681 5.95711 14.8931C5.38296 14.7093 4.83014 14.4646 4.30811 14.1631V19.0601C4.30811 19.1461 4.36011 19.3471 4.72911 19.6391C5.09111 19.9241 5.66111 20.2131 6.43111 20.4691C7.96511 20.9811 10.1311 21.3101 12.5581 21.3101C14.9851 21.3101 17.1511 20.9811 18.6851 20.4701C19.4551 20.2131 20.0251 19.9241 20.3861 19.6391C20.7561 19.3471 20.8081 19.1461 20.8081 19.0601V14.1631Z" fill="white"/>
</svg>
